<svg width="12" height="12" viewBox="0 0 12 12" fill="none" xmlns="http://www.w3.org/2000/svg">
<path d="M1.19995 3.00029C1.19995 2.68203 1.32638 2.37681 1.55142 2.15176C1.77647 1.92672 2.08169 1.80029 2.39995 1.80029H7.19995C7.51821 1.80029 7.82343 1.92672 8.04848 2.15176C8.27352 2.37681 8.39995 2.68203 8.39995 3.00029V3.53669L10.353 2.43809C10.3986 2.41245 10.4501 2.39919 10.5024 2.39962C10.5547 2.40005 10.606 2.41416 10.6512 2.44054C10.6964 2.46692 10.7339 2.50467 10.76 2.55002C10.7861 2.59538 10.7999 2.64677 10.8 2.69909V6.90029C10.7999 6.9527 10.7862 7.00419 10.76 7.04963C10.7339 7.09507 10.6963 7.13287 10.6511 7.15927C10.6058 7.18567 10.5544 7.19975 10.502 7.20011C10.4496 7.20046 10.398 7.18708 10.3524 7.16129L8.39995 6.06029V6.60029C8.39995 6.91855 8.27352 7.22378 8.04848 7.44882C7.82343 7.67386 7.51821 7.80029 7.19995 7.80029H5.99995V8.40029C5.99995 9.03681 5.74709 9.64726 5.29701 10.0973C4.84692 10.5474 4.23647 10.8003 3.59995 10.8003H2.09995C2.02039 10.8003 1.94408 10.7687 1.88782 10.7124C1.83156 10.6562 1.79995 10.5799 1.79995 10.5003V9.30029C1.79995 9.22073 1.83156 9.14442 1.88782 9.08816C1.94408 9.0319 2.02039 9.00029 2.09995 9.00029H3.29995C3.53865 9.00029 3.76756 8.90547 3.93635 8.73669C4.10513 8.56791 4.19995 8.33899 4.19995 8.10029V7.80029H2.39995C2.08169 7.80029 1.77647 7.67386 1.55142 7.44882C1.32638 7.22378 1.19995 6.91855 1.19995 6.60029V3.00029ZM4.79995 7.80029V8.10029C4.79995 8.49812 4.64192 8.87965 4.36061 9.16095C4.07931 9.44226 3.69778 9.60029 3.29995 9.60029H2.39995V10.2003H3.59995C4.07734 10.2003 4.53518 10.0107 4.87274 9.67309C5.21031 9.33552 5.39995 8.87768 5.39995 8.40029V7.80029H4.79995ZM2.39995 7.20029H7.19995C7.35908 7.20029 7.51169 7.13708 7.62421 7.02456C7.73674 6.91204 7.79995 6.75942 7.79995 6.60029V3.00029C7.79995 2.84116 7.73674 2.68855 7.62421 2.57603C7.51169 2.46351 7.35908 2.40029 7.19995 2.40029H2.39995C2.24082 2.40029 2.08821 2.46351 1.97569 2.57603C1.86317 2.68855 1.79995 2.84116 1.79995 3.00029V6.60029C1.79995 6.75942 1.86317 6.91204 1.97569 7.02456C2.08821 7.13708 2.24082 7.20029 2.39995 7.20029ZM8.40295 4.22429V5.37269L10.2 6.38669V3.21269L8.40295 4.22429Z" fill="#0B5CF4"/>
</svg>
