<svg width="12" height="13" viewBox="0 0 12 13" fill="none" xmlns="http://www.w3.org/2000/svg">
<g clip-path="url(#clip0_94_2812)">
<path d="M4.125 4.85205V7.27755C4.12594 7.63247 4.22715 7.9799 4.41697 8.27979C4.60679 8.57968 4.8775 8.81983 5.19788 8.97255L6 9.35205L6.80212 8.97218C7.1225 8.81945 7.39321 8.57931 7.58303 8.27941C7.77285 7.97952 7.87406 7.63209 7.875 7.27718V4.85205H4.125ZM7.125 7.27755C7.12434 7.4904 7.06354 7.69873 6.94962 7.87853C6.8357 8.05833 6.6733 8.20229 6.48113 8.2938L6 8.52218L5.51888 8.29455C5.32659 8.20298 5.1641 8.05891 5.05018 7.87897C4.93625 7.69902 4.87552 7.49053 4.875 7.27755V5.60205H7.125V7.27755Z" fill="#0B5CF4"/>
<path d="M11.4052 7.25751C11.5458 7.11687 11.6248 6.92614 11.6248 6.72727C11.6248 6.52839 11.5458 6.33766 11.4052 6.19702L9.2351 4.02689L10.3226 2.95364C10.483 2.99357 10.6521 2.97945 10.8037 2.91346C10.9552 2.84746 11.0808 2.7333 11.1608 2.58867C11.2409 2.44404 11.2709 2.27704 11.2464 2.11357C11.2218 1.9501 11.144 1.79931 11.025 1.68459C10.9059 1.56988 10.7524 1.49765 10.5881 1.47911C10.4239 1.46057 10.2581 1.49677 10.1165 1.58208C9.97492 1.66739 9.86544 1.79704 9.80507 1.95092C9.74469 2.1048 9.73679 2.27431 9.78259 2.43314L8.70484 3.49664L6.53022 1.32164C6.38957 1.18104 6.19884 1.10205 5.99997 1.10205C5.8011 1.10205 5.61037 1.18104 5.46972 1.32164L3.2996 3.49252L2.22635 2.40427C2.26607 2.24382 2.25174 2.07475 2.18557 1.92329C2.1194 1.77182 2.00509 1.64643 1.86038 1.56656C1.71567 1.48668 1.54865 1.4568 1.38522 1.48154C1.2218 1.50628 1.0711 1.58427 0.956521 1.70339C0.841939 1.82252 0.769872 1.97613 0.751502 2.14039C0.733131 2.30466 0.769483 2.47039 0.854919 2.61189C0.940355 2.75338 1.0701 2.86273 1.22402 2.92296C1.37794 2.98319 1.54744 2.99095 1.70622 2.94502L2.76935 4.02239L0.594346 6.19702C0.453742 6.33766 0.374756 6.52839 0.374756 6.72727C0.374756 6.92614 0.453742 7.11687 0.594346 7.25751L2.76935 9.43214L1.70622 10.5095C1.54778 10.4639 1.37871 10.4718 1.22521 10.532C1.07172 10.5922 0.942373 10.7014 0.857228 10.8426C0.772083 10.9838 0.735892 11.1491 0.754265 11.313C0.772638 11.4768 0.844549 11.6301 0.958851 11.7489C1.07315 11.8677 1.22346 11.9455 1.38648 11.9703C1.5495 11.995 1.71613 11.9653 1.86053 11.8857C2.00493 11.8061 2.11904 11.6811 2.18518 11.53C2.25132 11.379 2.26579 11.2104 2.22635 11.0503L3.2996 9.96276L5.46972 12.1325C5.61037 12.2731 5.8011 12.3521 5.99997 12.3521C6.19884 12.3521 6.38957 12.2731 6.53022 12.1325L8.70522 9.95789L9.78222 11.0214C9.73658 11.1798 9.74449 11.3489 9.80471 11.5024C9.86492 11.6559 9.97409 11.7852 10.1153 11.8704C10.2565 11.9555 10.4218 11.9917 10.5857 11.9733C10.7495 11.955 10.9028 11.8831 11.0216 11.7688C11.1404 11.6545 11.2182 11.5041 11.243 11.3411C11.2677 11.1781 11.238 11.0115 11.1584 10.8671C11.0788 10.7227 10.9538 10.6086 10.8027 10.5424C10.6517 10.4763 10.4831 10.4618 10.323 10.5013L9.23547 9.42764L11.4052 7.25751ZM5.99997 11.6023L1.12497 6.72727L5.99997 1.85227L10.875 6.72727L5.99997 11.6023Z" fill="#0B5CF4"/>
</g>
<defs>
<clipPath id="clip0_94_2812">
<rect width="12" height="12" fill="white" transform="translate(0 0.727051)"/>
</clipPath>
</defs>
</svg>
