<svg width="387" height="387" viewBox="0 0 387 387" fill="none" xmlns="http://www.w3.org/2000/svg">
<rect width="387" height="387" fill="#1E1E1E"/>
<rect width="387" height="387" rx="193.5" fill="#141414"/>
<mask id="mask0_0_1" style="mask-type:alpha" maskUnits="userSpaceOnUse" x="146" y="99" width="96" height="110">
<mask id="mask1_0_1" style="mask-type:luminance" maskUnits="userSpaceOnUse" x="175" y="142" width="37" height="22">
<path d="M175.659 142.709H211.158V163.691H175.659V142.709Z" fill="white"/>
</mask>
<g mask="url(#mask1_0_1)">
<path d="M175.926 161.783C176.356 160.341 176.256 158.312 177.966 157.736C177.977 155.399 177.966 153.063 177.97 150.729C177.369 150.389 176.236 150.338 176.234 149.449C176.517 149.067 176.983 148.908 177.402 148.731C182.17 146.896 186.933 145.041 191.699 143.193C192.969 142.712 194.422 142.719 195.701 143.184C200.256 144.93 204.794 146.724 209.353 148.466C210.085 148.775 211.02 148.921 211.328 149.775C210.901 150.076 210.453 150.351 209.96 150.531C207.803 151.361 205.649 152.196 203.494 153.032C203.755 154.123 203.609 155.356 203.51 156.479C202.922 158.069 201.119 158.649 199.651 159.113C196.13 160.036 192.393 160.067 188.829 159.37C187.279 159.013 185.63 158.557 184.465 157.403C183.439 156.306 183.918 154.665 183.833 153.312C183.824 153.192 183.846 153.094 183.887 153.01C182.412 152.44 180.937 151.87 179.463 151.296C179.462 153.445 179.476 155.592 179.467 157.74C181.077 158.251 181.059 160.113 181.445 161.47C181.685 162.182 181.798 163.262 180.908 163.553C179.487 163.686 178.036 163.652 176.611 163.573C175.821 163.386 175.661 162.446 175.926 161.783ZM185.397 156.195C186.133 157.073 187.301 157.386 188.352 157.707C191.708 158.537 195.263 158.557 198.642 157.816C199.824 157.488 201.183 157.197 202.001 156.203C202.226 155.35 202.07 154.45 202.103 153.571C200.028 154.376 197.952 155.183 195.875 155.988C194.499 156.532 192.907 156.534 191.53 155.978C189.461 155.168 187.39 154.367 185.319 153.563C185.366 154.438 185.228 155.33 185.397 156.195ZM180.041 162.118C179.844 161.169 179.616 160.224 179.367 159.288C178.946 159.27 178.527 159.253 178.105 159.237C177.832 160.189 177.593 161.149 177.385 162.118C178.272 162.115 179.156 162.118 180.041 162.118Z" fill="#0B5CF4"/>
</g>
<mask id="mask2_0_1" style="mask-type:luminance" maskUnits="userSpaceOnUse" x="176" y="109" width="66" height="100">
<path d="M176.528 109.508H241.108V208.633H176.528V109.508Z" fill="white"/>
</mask>
<g mask="url(#mask2_0_1)">
<path d="M211.979 109.753L176.729 129.966L206.36 121.95L227.736 134.293C227.736 152.128 220.636 168.861 208.701 181.457C199.362 191.314 182.881 201.236 182.881 201.236C186.31 203.907 189.941 206.362 193.767 208.571C223.061 191.656 241.111 160.4 241.111 126.571L211.979 109.753Z" fill="#0B5CF4"/>
</g>
<mask id="mask3_0_1" style="mask-type:luminance" maskUnits="userSpaceOnUse" x="146" y="99" width="65" height="99">
<path d="M146.427 99.1753H210.825V197.075H146.427V99.1753Z" fill="white"/>
</mask>
<g mask="url(#mask3_0_1)">
<path d="M182.842 185.284C168.353 172.531 159.799 154.023 159.799 134.295L159.839 134.272L207.037 106.901L193.768 99.2422L146.427 126.573C146.427 153.726 158.057 179.224 177.797 196.977C177.797 196.977 197.34 186.775 210.344 173.167L182.842 185.284Z" fill="#0B5CF4"/>
</g>
</mask>
<g mask="url(#mask0_0_1)">
<rect x="287.186" y="67.9021" width="182.458" height="182.458" rx="30.7441" transform="rotate(90 287.186 67.9021)" fill="url(#paint0_angular_0_1)"/>
</g>
<path d="M157.917 243.97V250.121H135.647V221.978H157.407V228.129H143.415V232.878H155.73V238.825H143.415V243.97H157.917Z" fill="white"/>
<path d="M167.109 250.489C165.312 250.489 163.541 250.278 161.797 249.863C160.053 249.448 158.651 248.904 157.598 248.23L159.865 243.004C160.838 243.623 161.998 244.113 163.339 244.474C164.688 244.838 166.026 245.018 167.351 245.018C168.565 245.018 169.43 244.892 169.94 244.637C170.456 244.385 170.718 244.018 170.718 243.535C170.718 243.045 170.403 242.701 169.779 242.5C169.162 242.303 168.176 242.106 166.828 241.915C165.11 241.708 163.651 241.432 162.454 241.085C161.253 240.731 160.217 240.088 159.342 239.153C158.473 238.21 158.04 236.894 158.04 235.206C158.04 233.811 158.446 232.573 159.261 231.491C160.083 230.402 161.277 229.545 162.843 228.919C164.416 228.286 166.304 227.966 168.504 227.966C170.061 227.966 171.603 228.129 173.133 228.456C174.662 228.776 175.943 229.228 176.983 229.817L174.716 235.002C172.818 233.934 170.758 233.396 168.531 233.396C167.351 233.396 166.479 233.539 165.915 233.818C165.359 234.1 165.084 234.468 165.084 234.92C165.084 235.437 165.385 235.798 165.996 235.995C166.603 236.196 167.609 236.4 169.014 236.608C170.785 236.88 172.251 237.193 173.415 237.547C174.575 237.894 175.588 238.527 176.446 239.452C177.305 240.377 177.734 241.67 177.734 243.331C177.734 244.692 177.322 245.916 176.5 247.005C175.685 248.094 174.478 248.948 172.878 249.564C171.275 250.179 169.353 250.489 167.109 250.489Z" fill="white"/>
<path d="M189.34 250.489C186.969 250.489 184.846 250.009 182.967 249.046C181.089 248.077 179.627 246.733 178.581 245.018C177.541 243.303 177.024 241.364 177.024 239.193C177.024 237.016 177.541 235.08 178.581 233.382C179.627 231.678 181.089 230.348 182.967 229.395C184.846 228.442 186.969 227.966 189.34 227.966C191.771 227.966 193.874 228.497 195.645 229.558C197.416 230.62 198.67 232.086 199.415 233.954L193.593 236.975C192.607 235.016 191.178 234.036 189.3 234.036C187.958 234.036 186.845 234.495 185.959 235.41C185.074 236.319 184.631 237.581 184.631 239.193C184.631 240.827 185.074 242.106 185.959 243.031C186.845 243.957 187.958 244.419 189.3 244.419C191.178 244.419 192.607 243.439 193.593 241.48L199.415 244.487C198.67 246.365 197.416 247.835 195.645 248.897C193.874 249.958 191.771 250.489 189.34 250.489Z" fill="white"/>
<path d="M210.434 250.489C208.133 250.489 206.06 250.009 204.209 249.046C202.358 248.077 200.909 246.733 199.862 245.018C198.823 243.303 198.306 241.364 198.306 239.193C198.306 237.043 198.823 235.111 199.862 233.396C200.909 231.681 202.348 230.348 204.182 229.395C206.023 228.442 208.106 227.966 210.434 227.966C212.758 227.966 214.841 228.442 216.685 229.395C218.537 230.348 219.976 231.678 221.005 233.382C222.042 235.08 222.561 237.016 222.561 239.193C222.561 241.364 222.042 243.303 221.005 245.018C219.976 246.733 218.537 248.077 216.685 249.046C214.841 250.009 212.758 250.489 210.434 250.489ZM210.434 244.419C211.748 244.419 212.825 243.957 213.667 243.031C214.515 242.106 214.941 240.827 214.941 239.193C214.941 237.581 214.515 236.319 213.667 235.41C212.825 234.495 211.748 234.036 210.434 234.036C209.109 234.036 208.022 234.495 207.174 235.41C206.332 236.319 205.913 237.581 205.913 239.193C205.913 240.827 206.332 242.106 207.174 243.031C208.022 243.957 209.109 244.419 210.434 244.419Z" fill="white"/>
<path d="M223.427 220.29H230.953V250.121H223.427V220.29Z" fill="white"/>
<path d="M242.377 227.966C245.936 227.966 248.656 228.793 250.534 230.443C252.412 232.096 253.351 234.621 253.351 238.023V250.122H246.335V247.304C245.252 249.427 243.135 250.489 239.989 250.489C238.326 250.489 236.884 250.193 235.67 249.604C234.452 249.016 233.536 248.216 232.919 247.209C232.302 246.202 231.994 245.056 231.994 243.766C231.994 241.708 232.772 240.112 234.328 238.976C235.884 237.833 238.289 237.261 241.545 237.261H245.825C245.691 234.958 244.168 233.804 241.264 233.804C240.234 233.804 239.188 233.974 238.125 234.308C237.068 234.645 236.173 235.107 235.441 235.696L232.906 230.497C234.086 229.701 235.529 229.079 237.239 228.633C238.946 228.191 240.66 227.966 242.377 227.966ZM242.096 245.658C242.961 245.658 243.726 245.447 244.39 245.018C245.05 244.593 245.53 243.963 245.825 243.126V241.235H242.565C240.372 241.235 239.278 241.977 239.278 243.453C239.278 244.117 239.526 244.651 240.03 245.059C240.529 245.46 241.217 245.658 242.096 245.658Z" fill="white"/>
<path d="M138.889 282.034C136.641 282.034 134.465 281.751 132.355 281.19C130.242 280.629 128.525 279.88 127.204 278.945L129.779 273.079C131.02 273.906 132.462 274.573 134.099 275.08C135.736 275.59 137.346 275.842 138.929 275.842C141.941 275.842 143.45 275.08 143.45 273.555C143.45 272.749 143.02 272.154 142.162 271.773C141.303 271.385 139.922 270.976 138.017 270.548C135.93 270.085 134.186 269.595 132.784 269.078C131.389 268.554 130.185 267.714 129.176 266.56C128.173 265.41 127.673 263.852 127.673 261.892C127.673 260.178 128.133 258.633 129.055 257.252C129.984 255.874 131.366 254.785 133.2 253.986C135.042 253.179 137.295 252.774 139.962 252.774C141.786 252.774 143.584 252.985 145.355 253.4C147.126 253.809 148.685 254.418 150.037 255.224L147.609 261.13C144.969 259.688 142.407 258.967 139.922 258.967C138.365 258.967 137.228 259.205 136.514 259.674C135.796 260.137 135.441 260.746 135.441 261.498C135.441 262.253 135.863 262.814 136.715 263.185C137.564 263.56 138.922 263.947 140.794 264.356C142.913 264.812 144.664 265.301 146.052 265.825C147.438 266.343 148.635 267.173 149.648 268.316C150.667 269.452 151.177 270.997 151.177 272.957C151.177 274.644 150.711 276.175 149.782 277.543C148.86 278.904 147.474 279.992 145.623 280.809C143.778 281.625 141.535 282.034 138.889 282.034Z" fill="white"/>
<path d="M173.774 270.615C173.774 270.669 173.734 271.302 173.653 272.506H158.038C158.349 273.632 158.963 274.5 159.875 275.106C160.788 275.704 161.931 276.004 163.31 276.004C164.336 276.004 165.228 275.861 165.98 275.568C166.731 275.269 167.489 274.786 168.26 274.112L172.231 278.304C170.138 280.665 167.083 281.842 163.068 281.842C160.553 281.842 158.346 281.362 156.441 280.399C154.543 279.43 153.074 278.086 152.027 276.371C150.988 274.656 150.471 272.717 150.471 270.547C150.471 268.396 150.974 266.474 151.987 264.776C153.007 263.072 154.415 261.738 156.213 260.775C158.011 259.806 160.03 259.319 162.277 259.319C164.413 259.319 166.355 259.768 168.099 260.666C169.843 261.565 171.225 262.868 172.245 264.572C173.264 266.27 173.774 268.284 173.774 270.615ZM162.317 264.749C161.153 264.749 160.184 265.086 159.406 265.756C158.628 266.43 158.131 267.342 157.917 268.492H166.717C166.503 267.342 166.006 266.43 165.228 265.756C164.45 265.086 163.478 264.749 162.317 264.749Z" fill="white"/>
<path d="M197.743 259.687V277.501C197.743 281.546 196.66 284.581 194.497 286.605C192.33 288.626 189.214 289.64 185.146 289.64C183.033 289.64 181.054 289.395 179.203 288.905C177.352 288.422 175.775 287.714 174.481 286.782L177.218 281.434C178.093 282.158 179.196 282.727 180.531 283.135C181.863 283.55 183.177 283.761 184.475 283.761C186.451 283.761 187.9 283.315 188.822 282.427C189.751 281.546 190.217 280.236 190.217 278.494V277.773C188.768 279.488 186.642 280.345 183.845 280.345C181.94 280.345 180.176 279.91 178.559 279.039C176.949 278.168 175.668 276.939 174.722 275.35C173.773 273.755 173.3 271.907 173.3 269.812C173.3 267.753 173.773 265.926 174.722 264.327C175.668 262.732 176.949 261.497 178.559 260.626C180.176 259.755 181.94 259.319 183.845 259.319C186.904 259.319 189.147 260.326 190.579 262.34V259.687H197.743ZM185.616 274.275C186.964 274.275 188.084 273.864 188.97 273.037C189.855 272.203 190.298 271.128 190.298 269.812C190.298 268.505 189.858 267.444 188.983 266.627C188.114 265.804 186.991 265.389 185.616 265.389C184.247 265.389 183.12 265.804 182.235 266.627C181.35 267.444 180.907 268.505 180.907 269.812C180.907 271.128 181.353 272.203 182.248 273.037C183.151 273.864 184.274 274.275 185.616 274.275Z" fill="white"/>
<path d="M222.556 259.688V281.476H215.379V279.148C214.591 280.03 213.641 280.7 212.535 281.162C211.424 281.615 210.247 281.843 209.006 281.843C206.233 281.843 204.019 281.013 202.366 279.353C200.709 277.685 199.884 275.188 199.884 271.868V259.688H207.423V270.616C207.423 272.259 207.722 273.456 208.322 274.208C208.929 274.953 209.815 275.324 210.978 275.324C212.166 275.324 213.138 274.902 213.89 274.059C214.648 273.215 215.03 271.922 215.03 270.18V259.688H222.556Z" fill="white"/>
<path d="M231.953 262.299C232.721 261.313 233.717 260.568 234.944 260.068C236.169 259.571 237.574 259.319 239.157 259.319V266.192C238.476 266.12 237.909 266.083 237.453 266.083C235.843 266.083 234.582 266.528 233.67 267.416C232.758 268.298 232.301 269.645 232.301 271.458V281.475H224.775V259.687H231.953V262.299Z" fill="white"/>
<path d="M248.878 259.319C252.436 259.319 255.156 260.146 257.034 261.796C258.913 263.449 259.852 265.974 259.852 269.376V281.475H252.835V278.657C251.752 280.78 249.636 281.842 246.49 281.842C244.826 281.842 243.384 281.546 242.17 280.957C240.953 280.369 240.037 279.569 239.42 278.562C238.803 277.555 238.494 276.409 238.494 275.119C238.494 273.061 239.272 271.465 240.828 270.329C242.385 269.186 244.789 268.614 248.046 268.614H252.326C252.191 266.311 250.669 265.157 247.764 265.157C246.735 265.157 245.688 265.327 244.625 265.661C243.569 265.998 242.673 266.46 241.942 267.049L239.406 261.85C240.587 261.054 242.029 260.432 243.74 259.986C245.447 259.544 247.161 259.319 248.878 259.319ZM248.596 277.011C249.461 277.011 250.226 276.8 250.89 276.371C251.551 275.946 252.03 275.316 252.326 274.48V272.588H249.066C246.872 272.588 245.779 273.33 245.779 274.806C245.779 275.47 246.027 276.004 246.53 276.412C247.03 276.813 247.717 277.011 248.596 277.011Z" fill="white"/>
<mask id="mask4_0_1" style="mask-type:alpha" maskUnits="userSpaceOnUse" x="58" y="58" width="271" height="271">
<circle cx="193.5" cy="193.5" r="133.132" stroke="#0B5CF4" stroke-width="4.31198"/>
</mask>
<g mask="url(#mask4_0_1)">
<rect x="345.938" y="47.7314" width="303.922" height="303.922" rx="30.7441" transform="rotate(90 345.938 47.7314)" fill="url(#paint1_angular_0_1)"/>
</g>
<path d="M74.5965 88.0542C73.7509 88.8795 72.8312 89.5701 71.8482 90.1203C70.8757 90.6593 69.9878 90.985 69.1844 91.086L68.1697 87.852C68.9202 87.751 69.6812 87.4927 70.4529 87.0884C71.2404 86.6842 71.9222 86.1901 72.5036 85.6062C73.6293 84.517 73.9306 83.6692 73.4126 83.0684C73.1431 82.7709 72.7784 82.7035 72.3133 82.8663C71.8588 83.0179 71.214 83.3548 70.3683 83.8769C69.4381 84.4608 68.6295 84.91 67.9371 85.2244C67.2342 85.5276 66.5101 85.6399 65.7596 85.5613C64.9985 85.4883 64.2798 85.0616 63.6032 84.2812C63.043 83.6243 62.6942 82.8607 62.5673 81.9904C62.4405 81.1089 62.5885 80.1825 63.0113 79.2056C63.4236 78.2175 64.1212 77.2405 65.1042 76.2636C65.7966 75.5898 66.5418 75.0172 67.3452 74.5343C68.138 74.0571 68.9202 73.7258 69.6918 73.5461L70.77 76.7352C69.2901 77.1282 68.0851 77.7795 67.1549 78.6891C66.5788 79.2618 66.2406 79.7671 66.1402 80.2162C66.045 80.6542 66.119 81.0135 66.3727 81.2942C66.6264 81.5974 66.9805 81.6648 67.4297 81.4964C67.8684 81.3335 68.4974 80.991 69.3113 80.4633C70.252 79.8681 71.0713 79.4246 71.7636 79.1382C72.4507 78.8407 73.1801 78.7284 73.9411 78.8014C74.7022 78.8631 75.4104 79.273 76.0764 80.0366C76.6524 80.6991 76.996 81.4627 77.1123 82.3273C77.2391 83.1976 77.0911 84.1352 76.6683 85.1346C76.2561 86.1227 75.569 87.0997 74.5965 88.0542Z" fill="white" fill-opacity="0.2"/>
<path d="M74.5965 304.512C73.7509 303.687 72.8312 302.996 71.8482 302.446C70.8757 301.907 69.9878 301.581 69.1844 301.48L68.1697 304.714C68.9202 304.815 69.6812 305.073 70.4529 305.478C71.2404 305.882 71.9222 306.376 72.5036 306.96C73.6293 308.049 73.9306 308.897 73.4126 309.498C73.1431 309.795 72.7784 309.863 72.3133 309.7C71.8588 309.548 71.214 309.211 70.3683 308.689C69.4381 308.105 68.6295 307.656 67.9371 307.342C67.2342 307.039 66.5101 306.926 65.7596 307.005C64.9985 307.078 64.2798 307.505 63.6032 308.285C63.043 308.942 62.6942 309.705 62.5673 310.576C62.4405 311.457 62.5885 312.384 63.0113 313.361C63.4236 314.349 64.1212 315.326 65.1042 316.303C65.7966 316.976 66.5418 317.549 67.3452 318.032C68.138 318.509 68.9202 318.84 69.6918 319.02L70.77 315.831C69.2901 315.438 68.0851 314.787 67.1549 313.877C66.5788 313.304 66.2406 312.799 66.1402 312.35C66.045 311.912 66.119 311.553 66.3727 311.272C66.6264 310.969 66.9805 310.901 67.4297 311.07C67.8684 311.233 68.4974 311.575 69.3113 312.103C70.252 312.698 71.0713 313.142 71.7636 313.428C72.4507 313.725 73.1801 313.838 73.9411 313.765C74.7022 313.703 75.4104 313.293 76.0764 312.53C76.6524 311.867 76.996 311.103 77.1123 310.239C77.2391 309.369 77.0911 308.431 76.6683 307.432C76.2561 306.443 75.569 305.466 74.5965 304.512Z" fill="white" fill-opacity="0.2"/>
<path d="M89.668 70.3632L91.5284 72.9458L82.5647 80.1999L74.0449 68.3419L82.8184 61.2451L84.6788 63.8278L79.0342 68.3868L80.4717 70.3856L85.4398 66.3656L87.258 68.9034L82.2899 72.9234L83.8331 75.0794L89.668 70.3632Z" fill="white" fill-opacity="0.2"/>
<path d="M89.668 322.203L91.5284 319.621L82.5647 312.367L74.0449 324.224L82.8184 331.321L84.6788 328.739L79.0342 324.18L80.4717 322.181L85.4398 326.201L87.258 323.663L82.2899 319.643L83.8331 317.487L89.668 322.203Z" fill="white" fill-opacity="0.2"/>
<path d="M88.252 57.2951L91.6134 55.0493L97.4271 64.8411L103.093 61.0457L104.763 63.8754L95.7358 69.9167L88.252 57.2951Z" fill="white" fill-opacity="0.2"/>
<path d="M88.252 335.271L91.6134 337.517L97.4271 327.725L103.093 331.521L104.763 328.691L95.7358 322.65L88.252 335.271Z" fill="white" fill-opacity="0.2"/>
<path d="M115.016 58.4553C113.69 59.1628 112.358 59.4997 111.021 59.466C109.678 59.4211 108.462 59.0336 107.363 58.2981C106.264 57.5682 105.408 56.5408 104.784 55.2214C104.166 53.9076 103.912 52.5601 104.023 51.1789C104.139 49.8033 104.583 48.54 105.355 47.3834C106.132 46.2156 107.183 45.2836 108.505 44.5762C109.826 43.8744 111.158 43.5431 112.5 43.588C113.838 43.6329 115.058 44.0259 116.158 44.7558C117.257 45.4913 118.113 46.5188 118.737 47.8326C119.355 49.152 119.609 50.4995 119.498 51.8751C119.382 53.2563 118.938 54.5195 118.166 55.6705C117.389 56.8271 116.337 57.7535 115.016 58.4553ZM113.557 55.3337C114.192 55.008 114.683 54.542 115.037 53.9412C115.402 53.3461 115.598 52.678 115.629 51.9425C115.656 51.2126 115.492 50.4715 115.143 49.7191C114.789 48.9724 114.329 48.3885 113.769 47.9674C113.203 47.5519 112.59 47.3273 111.93 47.2936C111.264 47.2487 110.619 47.3947 109.985 47.7203C109.35 48.0684 108.848 48.5288 108.484 49.1127C108.114 49.6966 107.918 50.3592 107.892 51.0891C107.86 51.8246 108.024 52.5657 108.378 53.3124C108.727 54.0648 109.187 54.6487 109.752 55.0642C110.312 55.4852 110.925 55.7267 111.591 55.7828C112.268 55.8277 112.923 55.6818 113.557 55.3337Z" fill="white" fill-opacity="0.2"/>
<path d="M115.016 334.111C113.69 333.404 112.358 333.067 111.021 333.1C109.678 333.145 108.462 333.533 107.363 334.268C106.264 334.998 105.408 336.026 104.784 337.345C104.166 338.659 103.912 340.006 104.023 341.388C104.139 342.763 104.583 344.026 105.355 345.183C106.132 346.351 107.183 347.283 108.505 347.99C109.826 348.692 111.158 349.023 112.5 348.978C113.838 348.933 115.058 348.54 116.158 347.811C117.257 347.075 118.113 346.048 118.737 344.734C119.355 343.414 119.609 342.067 119.498 340.691C119.382 339.31 118.938 338.047 118.166 336.896C117.389 335.739 116.337 334.813 115.016 334.111ZM113.557 337.233C114.192 337.558 114.683 338.024 115.037 338.625C115.402 339.22 115.598 339.888 115.629 340.624C115.656 341.354 115.492 342.095 115.143 342.847C114.789 343.594 114.329 344.178 113.769 344.599C113.203 345.015 112.59 345.239 111.93 345.273C111.264 345.318 110.619 345.172 109.985 344.846C109.35 344.498 108.848 344.038 108.484 343.454C108.114 342.87 107.918 342.207 107.892 341.477C107.86 340.742 108.024 340.001 108.378 339.254C108.727 338.502 109.187 337.918 109.752 337.502C110.312 337.081 110.925 336.84 111.591 336.784C112.268 336.739 112.923 336.885 113.557 337.233Z" fill="white" fill-opacity="0.2"/>
<path d="M130.535 34.9069L136.877 32.8183C138.341 32.3411 139.731 32.2063 141.042 32.4141C142.352 32.6274 143.478 33.1664 144.424 34.0311C145.365 34.9013 146.041 36.0523 146.454 37.4896C146.877 38.927 146.924 40.2857 146.602 41.5546C146.29 42.8291 145.65 43.9464 144.678 44.9009C143.705 45.8609 142.485 46.5796 141.021 47.0568L134.678 49.1455L130.535 34.9069ZM139.942 43.8902C141.095 43.5197 141.914 42.874 142.395 41.9588C142.886 41.0493 142.955 39.9769 142.606 38.7473C142.252 37.5346 141.623 36.698 140.725 36.232C139.837 35.7547 138.811 35.7042 137.659 36.0748L135.27 36.8608L137.553 44.6763L139.942 43.8902Z" fill="white" fill-opacity="0.2"/>
<path d="M130.535 357.66L136.877 359.748C138.341 360.226 139.731 360.36 141.042 360.153C142.352 359.939 143.478 359.4 144.424 358.536C145.365 357.665 146.041 356.514 146.454 355.077C146.877 353.64 146.924 352.281 146.602 351.012C146.29 349.738 145.65 348.62 144.678 347.666C143.705 346.706 142.485 345.987 141.021 345.51L134.678 343.421L130.535 357.66ZM139.942 348.676C141.095 349.047 141.914 349.693 142.395 350.608C142.886 351.517 142.955 352.59 142.606 353.819C142.252 355.032 141.623 355.869 140.725 356.335C139.837 356.812 138.811 356.862 137.659 356.492L135.27 355.706L137.553 347.89L139.942 348.676Z" fill="white" fill-opacity="0.2"/>
<path d="M163.724 37.9181L164.316 41.1071L153.28 43.4428L150.532 28.8225L161.335 26.5317L161.927 29.7208L154.971 31.203L155.436 33.6735L161.546 32.3709L162.138 35.4701L156.028 36.7727L156.536 39.4452L163.724 37.9181Z" fill="white" fill-opacity="0.2"/>
<path d="M163.724 354.648L164.316 351.459L153.28 349.124L150.532 363.744L161.335 366.035L161.927 362.846L154.971 361.363L155.436 358.893L161.546 360.196L162.138 357.096L156.028 355.794L156.536 353.121L163.724 354.648Z" fill="white" fill-opacity="0.2"/>
<path d="M193.801 40.234C193.363 40.8741 192.813 41.3682 192.152 41.7163C191.486 42.0588 190.757 42.244 189.954 42.2777C189.177 42.3226 188.474 42.2553 187.84 42.0756C187.216 41.8959 186.576 41.5647 185.916 41.0874C185.266 40.6214 184.526 39.9758 183.696 39.156C182.48 38.9932 181.381 38.5834 180.398 37.9208C179.425 37.2471 178.649 36.3881 178.072 35.3381C177.491 34.277 177.185 33.1035 177.142 31.8122C177.084 30.3468 177.364 29.0049 177.988 27.7922C178.622 26.5794 179.515 25.6137 180.673 24.8951C181.825 24.1764 183.146 23.789 184.626 23.7272C186.106 23.6543 187.443 23.9238 188.643 24.5357C189.853 25.1533 190.82 26.0348 191.539 27.1858C192.269 28.3256 192.665 29.6281 192.723 31.0935C192.792 32.7723 192.417 34.277 191.603 35.6076C190.783 36.9271 189.663 37.8984 188.241 38.5272C188.505 38.8136 188.775 39.0157 189.045 39.1336C189.309 39.2571 189.6 39.302 189.911 39.2908C190.699 39.2627 191.391 38.8809 191.983 38.1454L193.801 40.234ZM181.159 31.6101C181.185 32.4523 181.376 33.1822 181.73 33.811C182.095 34.4398 182.575 34.9283 183.167 35.2708C183.759 35.602 184.404 35.7536 185.112 35.7199C185.815 35.6919 186.45 35.4841 187.015 35.0911C187.575 34.7037 188.009 34.1815 188.305 33.519C188.601 32.8621 188.733 32.1154 188.706 31.2732C188.664 30.4366 188.463 29.7011 188.114 29.0723C187.776 28.4435 187.311 27.9718 186.719 27.6574C186.127 27.3318 185.477 27.1802 184.774 27.2083C184.066 27.242 183.432 27.4441 182.871 27.8146C182.306 28.1908 181.867 28.7074 181.561 29.3643C181.249 30.0268 181.117 30.7735 181.159 31.6101Z" fill="white" fill-opacity="0.2"/>
<path d="M193.801 352.332C193.363 351.692 192.813 351.198 192.152 350.85C191.486 350.507 190.757 350.322 189.954 350.288C189.177 350.244 188.474 350.311 187.84 350.491C187.216 350.67 186.576 351.001 185.916 351.479C185.266 351.945 184.526 352.59 183.696 353.41C182.48 353.573 181.381 353.983 180.398 354.645C179.425 355.319 178.649 356.178 178.072 357.228C177.491 358.289 177.185 359.463 177.142 360.754C177.084 362.219 177.364 363.561 177.988 364.774C178.622 365.987 179.515 366.952 180.673 367.671C181.825 368.39 183.146 368.777 184.626 368.839C186.106 368.912 187.443 368.642 188.643 368.03C189.853 367.413 190.82 366.531 191.539 365.38C192.269 364.241 192.665 362.938 192.723 361.473C192.792 359.794 192.417 358.289 191.603 356.959C190.783 355.639 189.663 354.668 188.241 354.039C188.505 353.753 188.775 353.55 189.045 353.433C189.309 353.309 189.6 353.264 189.911 353.275C190.699 353.303 191.391 353.685 191.983 354.421L193.801 352.332ZM181.159 360.956C181.185 360.114 181.376 359.384 181.73 358.755C182.095 358.126 182.575 357.638 183.167 357.295C183.759 356.964 184.404 356.813 185.112 356.846C185.815 356.874 186.45 357.082 187.015 357.475C187.575 357.862 188.009 358.385 188.305 359.047C188.601 359.704 188.733 360.451 188.706 361.293C188.664 362.13 188.463 362.865 188.114 363.494C187.776 364.123 187.311 364.594 186.719 364.909C186.127 365.234 185.477 365.386 184.774 365.358C184.066 365.324 183.432 365.122 182.871 364.752C182.306 364.375 181.867 363.859 181.561 363.202C181.249 362.539 181.117 361.793 181.159 360.956Z" fill="white" fill-opacity="0.2"/>
<path d="M204.308 39.4393C202.236 39.2877 200.656 38.5746 199.572 37.2833C198.499 35.9975 198.034 34.2514 198.177 32.0505L198.684 23.7859L202.617 24.0554L202.109 32.2077C201.951 34.5771 202.765 35.8235 204.54 35.9582C206.316 36.0818 207.278 34.9589 207.437 32.5895L207.944 24.4372L211.813 24.7067L211.305 32.9713C211.163 35.1722 210.481 36.8341 209.255 37.957C208.029 39.0799 206.38 39.574 204.308 39.4393Z" fill="white" fill-opacity="0.2"/>
<path d="M204.308 353.127C202.236 353.279 200.656 353.992 199.572 355.283C198.499 356.569 198.034 358.315 198.177 360.516L198.684 368.781L202.617 368.511L202.109 360.359C201.951 357.99 202.765 356.743 204.54 356.608C206.316 356.485 207.278 357.608 207.437 359.977L207.944 368.129L211.813 367.86L211.305 359.595C211.163 357.394 210.481 355.733 209.255 354.61C208.029 353.487 206.38 352.993 204.308 353.127Z" fill="white" fill-opacity="0.2"/>
<path d="M226.044 39.1716L220.209 38.0711L218.645 40.7436L214.67 40.0025L223.19 26.4377L227.038 27.1564L230.737 42.967L226.678 42.2259L226.044 39.1716ZM225.41 35.8927L224.395 30.862L221.858 35.2414L225.41 35.8927Z" fill="white" fill-opacity="0.2"/>
<path d="M226.044 353.395L220.209 354.495L218.645 351.823L214.67 352.564L223.19 366.128L227.038 365.41L230.737 349.599L226.678 350.34L226.044 353.395ZM225.41 356.674L224.395 361.704L221.858 357.325L225.41 356.674Z" fill="white" fill-opacity="0.2"/>
<path d="M238.291 29.6978L242.118 30.7982L239.242 41.9375L245.69 43.8464L244.845 47.0804L234.57 44.071L238.291 29.6978Z" fill="white" fill-opacity="0.2"/>
<path d="M238.291 362.869L242.118 361.768L239.242 350.629L245.69 348.72L244.845 345.486L234.57 348.495L238.291 362.869Z" fill="white" fill-opacity="0.2"/>
<path d="M253.829 34.6021L257.571 36.0169L252.878 50.0758L249.136 48.6609L253.829 34.6021Z" fill="white" fill-opacity="0.2"/>
<path d="M253.829 357.964L257.571 356.549L252.878 342.491L249.136 343.906L253.829 357.964Z" fill="white" fill-opacity="0.2"/>
<path d="M264.052 38.5479L270.098 41.445C271.504 42.1187 272.635 43.0058 273.481 44.095C274.326 45.173 274.834 46.3633 275.003 47.6659C275.172 48.9685 274.966 50.3047 274.39 51.6635C273.798 53.039 272.984 54.0946 271.958 54.8301C270.928 55.56 269.749 55.9417 268.428 55.9754C267.101 56.0203 265.732 55.7059 264.327 55.0322L258.28 52.1351L264.052 38.5479ZM265.51 51.888C266.594 52.4102 267.603 52.5056 268.534 52.18C269.474 51.8487 270.204 51.0964 270.711 49.9117C271.203 48.7607 271.25 47.6883 270.859 46.7002C270.479 45.712 269.744 44.9597 268.66 44.4319L266.377 43.3315L263.227 50.7876L265.51 51.888Z" fill="white" fill-opacity="0.2"/>
<path d="M264.052 354.019L270.098 351.121C271.504 350.448 272.635 349.561 273.481 348.471C274.326 347.393 274.834 346.203 275.003 344.901C275.172 343.598 274.966 342.262 274.39 340.903C273.798 339.527 272.984 338.472 271.958 337.736C270.928 337.006 269.749 336.625 268.428 336.591C267.101 336.546 265.732 336.86 264.327 337.534L258.28 340.431L264.052 354.019ZM265.51 340.678C266.594 340.156 267.603 340.061 268.534 340.386C269.474 340.718 270.204 341.47 270.711 342.655C271.203 343.806 271.25 344.878 270.859 345.866C270.479 346.854 269.744 347.607 268.66 348.135L266.377 349.235L263.227 341.779L265.51 340.678Z" fill="white" fill-opacity="0.2"/>
<path d="M285.226 63.4603L280.11 60.2713L277.784 62.1578L274.317 59.9793L286.769 50.4795L290.152 52.5906L288.355 68.7829L284.803 66.5596L285.226 63.4603ZM285.712 60.159L286.473 55.061L282.605 58.2276L285.712 60.159Z" fill="white" fill-opacity="0.2"/>
<path d="M285.226 329.106L280.11 332.295L277.784 330.409L274.317 332.587L286.769 342.087L290.152 339.976L288.355 323.783L284.803 326.007L285.226 329.106ZM285.712 332.407L286.473 337.505L282.605 334.339L285.712 332.407Z" fill="white" fill-opacity="0.2"/>
<path d="M299.958 59.1633L305.286 63.3855C306.512 64.3624 307.426 65.4685 308.034 66.7093C308.653 67.9557 308.906 69.2358 308.795 70.5496C308.679 71.8803 308.203 73.1436 307.358 74.3451C306.512 75.5578 305.508 76.3944 304.356 76.8604C303.214 77.3376 301.988 77.4443 300.677 77.1748C299.377 76.9166 298.119 76.3046 296.893 75.3332L291.565 71.1111L299.958 59.1633ZM298.669 72.5484C299.625 73.312 300.598 73.632 301.586 73.5141C302.569 73.3906 303.425 72.8179 304.144 71.7849C304.863 70.763 305.127 69.7412 304.948 68.7081C304.778 67.6638 304.213 66.7542 303.256 65.9906L301.248 64.3961L296.66 70.9539L298.669 72.5484Z" fill="white" fill-opacity="0.2"/>
<path d="M299.958 333.403L305.286 329.181C306.512 328.204 307.426 327.098 308.034 325.857C308.653 324.611 308.906 323.331 308.795 322.017C308.679 320.686 308.203 319.423 307.358 318.222C306.512 317.009 305.508 316.172 304.356 315.706C303.214 315.229 301.988 315.122 300.677 315.392C299.377 315.65 298.119 316.262 296.893 317.233L291.565 321.456L299.958 333.403ZM298.669 320.018C299.625 319.255 300.598 318.935 301.586 319.053C302.569 319.176 303.425 319.749 304.144 320.782C304.863 321.804 305.127 322.825 304.948 323.859C304.778 324.903 304.213 325.812 303.256 326.576L301.248 328.171L296.66 321.613L298.669 320.018Z" fill="white" fill-opacity="0.2"/>
<path d="M317.225 89.4025L315.153 91.8056L306.866 83.7206L316.358 72.7385L324.476 80.6438L322.404 83.0468L317.182 77.9488L315.576 79.7904L320.163 84.2821L318.155 86.6177L313.567 82.1261L311.834 84.1248L317.225 89.4025Z" fill="white" fill-opacity="0.2"/>
<path d="M317.225 303.164L315.153 300.761L306.866 308.846L316.358 319.828L324.476 311.922L322.404 309.519L317.182 314.617L315.576 312.776L320.163 308.284L318.155 305.948L313.567 310.44L311.834 308.441L317.225 303.164Z" fill="white" fill-opacity="0.2"/>
<defs>
<radialGradient id="paint0_angular_0_1" cx="0" cy="0" r="1" gradientUnits="userSpaceOnUse" gradientTransform="translate(375.678 159.131) rotate(90) scale(91.2289 88.492)">
<stop offset="0.0729167" stop-color="#D7A25F"/>
<stop offset="0.244792" stop-color="#F6DBA6"/>
<stop offset="0.434957" stop-color="#FFEBC4"/>
<stop offset="0.532623" stop-color="#F0BE79"/>
<stop offset="0.593311" stop-color="#8F653B"/>
<stop offset="0.627652" stop-color="#673D22"/>
<stop offset="0.708863" stop-color="#BA7F3B"/>
<stop offset="0.773898" stop-color="#EEBC70"/>
<stop offset="0.921875" stop-color="#F6DDD1"/>
</radialGradient>
<radialGradient id="paint1_angular_0_1" cx="0" cy="0" r="1" gradientUnits="userSpaceOnUse" gradientTransform="translate(493.34 199.693) rotate(90) scale(151.961 147.402)">
<stop offset="0.0729167" stop-color="#D7A25F"/>
<stop offset="0.244792" stop-color="#F6DBA6"/>
<stop offset="0.434957" stop-color="#FFEBC4"/>
<stop offset="0.532623" stop-color="#F0BE79"/>
<stop offset="0.593311" stop-color="#8F653B"/>
<stop offset="0.627652" stop-color="#673D22"/>
<stop offset="0.708863" stop-color="#BA7F3B"/>
<stop offset="0.773898" stop-color="#EEBC70"/>
<stop offset="0.921875" stop-color="#F6DDD1"/>
</radialGradient>
</defs>
</svg>
