<svg width="172" height="172" viewBox="0 0 172 172" fill="none" xmlns="http://www.w3.org/2000/svg">
<g filter="url(#filter0_d_94_2701)">
<rect x="20" y="14" width="132" height="132" rx="66" fill="white"/>
<mask id="mask0_94_2701" style="mask-type:luminance" maskUnits="userSpaceOnUse" x="78" y="56" width="17" height="11">
<path d="M78.748 56.926H94.9963V66.5294H78.748V56.926Z" fill="white"/>
</mask>
<g mask="url(#mask0_94_2701)">
<path d="M78.8701 65.6559C79.0668 64.9956 79.021 64.067 79.8037 63.8035C79.8087 62.734 79.8037 61.6644 79.8054 60.5966C79.5303 60.4407 79.0118 60.4173 79.011 60.0105C79.1402 59.8355 79.3536 59.7629 79.5453 59.6821C81.7278 58.8418 83.9077 57.9931 86.0893 57.147C86.6703 56.9269 87.3356 56.9303 87.9208 57.1428C90.0057 57.9423 92.0831 58.7634 94.1697 59.5604C94.5048 59.7021 94.9325 59.7688 95.0733 60.1597C94.8783 60.2973 94.6732 60.4232 94.4473 60.5057C93.4603 60.8858 92.4741 61.2676 91.4879 61.6503C91.6071 62.1496 91.5404 62.714 91.4954 63.2283C91.2261 63.9561 90.4008 64.2212 89.7289 64.4338C88.1175 64.8564 86.4069 64.8706 84.7755 64.5513C84.0661 64.3879 83.3117 64.1795 82.7781 63.651C82.3088 63.1491 82.528 62.398 82.4889 61.7786C82.4847 61.7236 82.4947 61.6786 82.5139 61.6403C81.8386 61.3793 81.1634 61.1184 80.489 60.8558C80.4881 61.8395 80.4948 62.8223 80.4906 63.8052C81.2276 64.0394 81.2192 64.8914 81.396 65.5125C81.506 65.8384 81.5577 66.3328 81.15 66.4661C80.4998 66.527 79.8354 66.5112 79.1835 66.4753C78.8217 66.3895 78.7484 65.9593 78.8701 65.6559ZM83.2049 63.0983C83.5417 63.5001 84.0761 63.6435 84.5571 63.7902C86.0935 64.1703 87.7207 64.1795 89.2671 63.8402C89.8081 63.6902 90.43 63.5568 90.8043 63.1016C90.9077 62.7115 90.836 62.2997 90.851 61.897C89.9015 62.2655 88.9512 62.6348 88.0008 63.0032C87.3706 63.2525 86.642 63.2533 86.0118 62.9991C85.0648 62.6281 84.1169 62.2613 83.1691 61.8937C83.1908 62.2938 83.1274 62.7023 83.2049 63.0983ZM80.7532 65.8092C80.6632 65.3749 80.559 64.9423 80.4448 64.5138C80.2522 64.5054 80.0605 64.4979 79.8671 64.4904C79.742 64.9264 79.6328 65.3658 79.5378 65.8092C79.9438 65.8076 80.3481 65.8092 80.7532 65.8092Z" fill="#0B5CF4"/>
</g>
<mask id="mask1_94_2701" style="mask-type:luminance" maskUnits="userSpaceOnUse" x="79" y="41" width="30" height="47">
<path d="M79.1465 41.7295H108.705V87.0998H79.1465V41.7295Z" fill="white"/>
</mask>
<g mask="url(#mask1_94_2701)">
<path d="M95.3727 41.8418L79.239 51.0933L92.8012 47.4245L102.585 53.0738C102.585 61.2372 99.335 68.8957 93.8723 74.6611C89.5982 79.1726 82.0545 83.7142 82.0545 83.7142C83.624 84.9367 85.2862 86.0601 87.0371 87.0712C100.445 79.3292 108.707 65.0234 108.707 49.5394L95.3727 41.8418Z" fill="#0B5CF4"/>
</g>
<mask id="mask2_94_2701" style="mask-type:luminance" maskUnits="userSpaceOnUse" x="65" y="37" width="30" height="45">
<path d="M65.3691 37H94.8445V81.8093H65.3691V37Z" fill="white"/>
</mask>
<g mask="url(#mask2_94_2701)">
<path d="M82.0362 76.4118C75.4045 70.5747 71.4892 62.1034 71.4892 53.0737L71.5074 53.0633L93.1103 40.5357L87.037 37.03L65.3689 49.5393C65.3689 61.9677 70.692 73.6381 79.7269 81.7636C79.7269 81.7636 88.6718 77.0942 94.6238 70.8656L82.0362 76.4118Z" fill="#0B5CF4"/>
</g>
<path d="M67.3677 99.539V102.77H55.5005V87.9863H67.0961V91.2176H59.6397V93.7126H66.2024V96.8367H59.6397V99.539H67.3677Z" fill="#0B5CF4"/>
<path d="M72.2659 102.963C71.3079 102.963 70.3642 102.853 69.4349 102.634C68.5055 102.416 67.7585 102.13 67.1973 101.777L68.4054 99.0314C68.9237 99.3567 69.5421 99.6141 70.257 99.8035C70.9755 99.9947 71.6886 100.089 72.3945 100.089C73.0415 100.089 73.5026 100.023 73.7743 99.8893C74.0495 99.757 74.1889 99.564 74.1889 99.3102C74.1889 99.0529 74.0209 98.8723 73.6885 98.7669C73.3597 98.6632 72.8342 98.5596 72.1157 98.4595C71.2007 98.3505 70.4232 98.2057 69.7852 98.0234C69.1454 97.8375 68.5931 97.4998 68.1266 97.0083C67.6637 96.5132 67.4332 95.8215 67.4332 94.9351C67.4332 94.2023 67.6494 93.5518 68.0837 92.9834C68.5216 92.4115 69.1579 91.9611 69.9925 91.6323C70.8307 91.2998 71.8369 91.1318 73.0094 91.1318C73.8386 91.1318 74.6608 91.2176 75.4757 91.3892C76.2907 91.5572 76.9734 91.7949 77.5275 92.1041L76.3193 94.8278C75.3077 94.2666 74.2104 93.9843 73.0237 93.9843C72.3945 93.9843 71.9299 94.0593 71.6296 94.2059C71.3329 94.3542 71.1864 94.5472 71.1864 94.7849C71.1864 95.0566 71.3472 95.246 71.6725 95.3497C71.996 95.4552 72.5322 95.5624 73.281 95.6714C74.2247 95.8144 75.0057 95.9788 75.6259 96.1647C76.2442 96.347 76.784 96.6794 77.2415 97.1655C77.6991 97.6517 77.9278 98.3308 77.9278 99.203C77.9278 99.9179 77.708 100.561 77.2701 101.133C76.8358 101.705 76.1924 102.154 75.3399 102.477C74.4856 102.801 73.4615 102.963 72.2659 102.963Z" fill="#0B5CF4"/>
<path d="M84.1116 102.963C82.848 102.963 81.7167 102.711 80.7158 102.206C79.715 101.696 78.9357 100.99 78.3781 100.089C77.8241 99.1887 77.5488 98.17 77.5488 97.0297C77.5488 95.8859 77.8241 94.8689 78.3781 93.9771C78.9357 93.0817 79.715 92.3829 80.7158 91.8825C81.7167 91.382 82.848 91.1318 84.1116 91.1318C85.4073 91.1318 86.5279 91.4106 87.4716 91.9683C88.4152 92.5259 89.0836 93.2962 89.4804 94.2774L86.3778 95.8644C85.8523 94.835 85.091 94.3203 84.0901 94.3203C83.3752 94.3203 82.7819 94.5615 82.31 95.0423C81.8382 95.5195 81.6023 96.1826 81.6023 97.0297C81.6023 97.8876 81.8382 98.5596 82.31 99.0457C82.7819 99.5318 83.3752 99.7749 84.0901 99.7749C85.091 99.7749 85.8523 99.2602 86.3778 98.2307L89.4804 99.8106C89.0836 100.797 88.4152 101.569 87.4716 102.127C86.5279 102.685 85.4073 102.963 84.1116 102.963Z" fill="#0B5CF4"/>
<path d="M95.3523 102.963C94.1262 102.963 93.0217 102.711 92.0352 102.206C91.0486 101.696 90.2765 100.99 89.7189 100.089C89.1649 99.1887 88.8896 98.17 88.8896 97.0297C88.8896 95.9002 89.1649 94.885 89.7189 93.9843C90.2765 93.0835 91.0433 92.3829 92.0209 91.8825C93.0021 91.382 94.1119 91.1318 95.3523 91.1318C96.5908 91.1318 97.7007 91.382 98.6837 91.8825C99.6702 92.3829 100.437 93.0817 100.986 93.9771C101.538 94.8689 101.815 95.8859 101.815 97.0297C101.815 98.17 101.538 99.1887 100.986 100.089C100.437 100.99 99.6702 101.696 98.6837 102.206C97.7007 102.711 96.5908 102.963 95.3523 102.963ZM95.3523 99.7749C96.0529 99.7749 96.6266 99.5318 97.0752 99.0457C97.5274 98.5596 97.7543 97.8876 97.7543 97.0297C97.7543 96.1826 97.5274 95.5195 97.0752 95.0423C96.6266 94.5615 96.0529 94.3203 95.3523 94.3203C94.6463 94.3203 94.0673 94.5615 93.6151 95.0423C93.1665 95.5195 92.9431 96.1826 92.9431 97.0297C92.9431 97.8876 93.1665 98.5596 93.6151 99.0457C94.0673 99.5318 94.6463 99.7749 95.3523 99.7749Z" fill="#0B5CF4"/>
<path d="M102.276 87.0996H106.287V102.77H102.276V87.0996Z" fill="#0B5CF4"/>
<path d="M112.376 91.1318C114.272 91.1318 115.721 91.5661 116.722 92.4329C117.723 93.3015 118.223 94.6277 118.223 96.4149V102.77H114.485V101.29C113.907 102.406 112.779 102.963 111.103 102.963C110.217 102.963 109.448 102.808 108.801 102.499C108.152 102.189 107.664 101.769 107.336 101.24C107.007 100.711 106.842 100.109 106.842 99.4318C106.842 98.3505 107.257 97.5123 108.086 96.9153C108.915 96.3148 110.197 96.0146 111.932 96.0146H114.213C114.141 94.8046 113.33 94.1987 111.782 94.1987C111.234 94.1987 110.676 94.2881 110.109 94.4632C109.546 94.6402 109.069 94.8832 108.68 95.1924L107.328 92.4615C107.958 92.0433 108.726 91.7163 109.638 91.4821C110.547 91.2498 111.46 91.1318 112.376 91.1318ZM112.225 100.425C112.687 100.425 113.094 100.315 113.448 100.089C113.8 99.8661 114.056 99.5354 114.213 99.0958V98.1021H112.476C111.307 98.1021 110.724 98.4917 110.724 99.2673C110.724 99.6158 110.856 99.8964 111.124 100.111C111.391 100.322 111.757 100.425 112.225 100.425Z" fill="#0B5CF4"/>
<path d="M57.2267 119.535C56.0293 119.535 54.8694 119.386 53.7452 119.091C52.6192 118.796 51.7042 118.403 51 117.912L52.3726 114.831C53.0339 115.265 53.8024 115.615 54.6746 115.881C55.5467 116.15 56.4046 116.282 57.2482 116.282C58.8531 116.282 59.6574 115.881 59.6574 115.081C59.6574 114.657 59.4286 114.344 58.9711 114.144C58.5135 113.94 57.7772 113.726 56.762 113.501C55.6504 113.258 54.721 113 53.974 112.729C53.2305 112.454 52.5889 112.012 52.0509 111.406C51.5165 110.802 51.2502 109.984 51.2502 108.954C51.2502 108.053 51.4951 107.242 51.9866 106.516C52.4816 105.792 53.218 105.221 54.1956 104.801C55.1768 104.377 56.3778 104.164 57.7986 104.164C58.7709 104.164 59.7289 104.275 60.6725 104.493C61.6162 104.708 62.4472 105.028 63.1675 105.451L61.8735 108.554C60.467 107.796 59.1015 107.417 57.7772 107.417C56.9479 107.417 56.342 107.542 55.9614 107.789C55.5789 108.032 55.3894 108.352 55.3894 108.747C55.3894 109.144 55.6146 109.438 56.0686 109.633C56.5208 109.83 57.2446 110.034 58.2419 110.248C59.3714 110.488 60.3043 110.745 61.0443 111.02C61.7824 111.292 62.4204 111.728 62.9602 112.328C63.5035 112.925 63.7752 113.737 63.7752 114.766C63.7752 115.653 63.5267 116.457 63.0317 117.175C62.5402 117.89 61.802 118.462 60.8155 118.891C59.8325 119.32 58.6369 119.535 57.2267 119.535Z" fill="#0B5CF4"/>
<path d="M75.8166 113.537C75.8166 113.565 75.7952 113.898 75.7523 114.53H67.4309C67.5971 115.122 67.9242 115.578 68.4103 115.896C68.8965 116.21 69.5059 116.368 70.2405 116.368C70.7874 116.368 71.2628 116.293 71.6631 116.139C72.0634 115.982 72.4674 115.728 72.8784 115.374L74.9945 117.576C73.8793 118.816 72.2511 119.435 70.1118 119.435C68.7714 119.435 67.5954 119.183 66.5802 118.677C65.5686 118.167 64.7858 117.461 64.2282 116.561C63.6742 115.66 63.3989 114.641 63.3989 113.501C63.3989 112.371 63.667 111.362 64.2068 110.47C64.7501 109.574 65.5007 108.874 66.4587 108.368C67.4166 107.859 68.4925 107.603 69.69 107.603C70.8285 107.603 71.8633 107.839 72.7926 108.311C73.722 108.783 74.4583 109.467 75.0017 110.363C75.545 111.254 75.8166 112.312 75.8166 113.537ZM69.7114 110.455C69.0913 110.455 68.5748 110.632 68.1601 110.984C67.7455 111.338 67.481 111.817 67.3666 112.421H72.0563C71.9419 111.817 71.6774 111.338 71.2628 110.984C70.8481 110.632 70.3298 110.455 69.7114 110.455Z" fill="#0B5CF4"/>
<path d="M88.5888 107.796V117.154C88.5888 119.279 88.0116 120.873 86.8588 121.937C85.7042 122.998 84.0439 123.531 81.876 123.531C80.75 123.531 79.6956 123.402 78.709 123.145C77.7225 122.891 76.8825 122.519 76.1926 122.03L77.651 119.22C78.1174 119.601 78.7054 119.899 79.4168 120.114C80.1263 120.332 80.8269 120.443 81.5185 120.443C82.5712 120.443 83.3433 120.208 83.8348 119.742C84.3299 119.279 84.5783 118.591 84.5783 117.676V117.297C83.8062 118.198 82.6731 118.648 81.1825 118.648C80.1674 118.648 79.2273 118.419 78.3659 117.962C77.508 117.504 76.8253 116.859 76.3213 116.024C75.8155 115.186 75.5635 114.216 75.5635 113.115C75.5635 112.034 75.8155 111.074 76.3213 110.234C76.8253 109.396 77.508 108.747 78.3659 108.289C79.2273 107.832 80.1674 107.603 81.1825 107.603C82.8125 107.603 84.0082 108.132 84.7713 109.19V107.796H88.5888ZM82.1262 115.46C82.8447 115.46 83.4416 115.243 83.9134 114.809C84.3853 114.371 84.6212 113.807 84.6212 113.115C84.6212 112.429 84.3871 111.871 83.9206 111.442C83.4577 111.009 82.859 110.791 82.1262 110.791C81.397 110.791 80.7965 111.009 80.3247 111.442C79.8528 111.871 79.6169 112.429 79.6169 113.115C79.6169 113.807 79.8546 114.371 80.3318 114.809C80.8126 115.243 81.4113 115.46 82.1262 115.46Z" fill="#0B5CF4"/>
<path d="M101.813 107.796V119.241H97.988V118.019C97.568 118.482 97.0622 118.834 96.4724 119.077C95.8808 119.315 95.2535 119.434 94.5922 119.434C93.1142 119.434 91.9346 118.998 91.0535 118.126C90.1706 117.25 89.731 115.939 89.731 114.194V107.796H93.7487V113.536C93.7487 114.4 93.9077 115.029 94.2276 115.424C94.5511 115.815 95.023 116.01 95.6431 116.01C96.2758 116.01 96.7941 115.788 97.1944 115.345C97.5984 114.902 97.8021 114.223 97.8021 113.308V107.796H101.813Z" fill="#0B5CF4"/>
<path d="M106.819 109.169C107.229 108.65 107.759 108.259 108.414 107.996C109.066 107.735 109.815 107.603 110.658 107.603V111.213C110.295 111.176 109.993 111.156 109.75 111.156C108.893 111.156 108.221 111.39 107.734 111.857C107.248 112.32 107.005 113.027 107.005 113.98V119.241H102.995V107.796H106.819V109.169Z" fill="#0B5CF4"/>
<path d="M115.839 107.603C117.735 107.603 119.185 108.037 120.185 108.904C121.186 109.773 121.687 111.099 121.687 112.886V119.241H117.948V117.762C117.371 118.877 116.243 119.435 114.566 119.435C113.68 119.435 112.911 119.279 112.264 118.97C111.616 118.661 111.128 118.241 110.799 117.712C110.47 117.183 110.306 116.58 110.306 115.903C110.306 114.822 110.72 113.983 111.55 113.387C112.379 112.786 113.66 112.486 115.396 112.486H117.676C117.605 111.276 116.793 110.67 115.246 110.67C114.697 110.67 114.139 110.759 113.573 110.934C113.01 111.111 112.533 111.354 112.143 111.664L110.792 108.933C111.421 108.515 112.189 108.187 113.101 107.953C114.011 107.721 114.924 107.603 115.839 107.603ZM115.689 116.897C116.15 116.897 116.557 116.786 116.911 116.561C117.263 116.337 117.519 116.007 117.676 115.567V114.573H115.939C114.77 114.573 114.188 114.963 114.188 115.739C114.188 116.087 114.32 116.368 114.588 116.582C114.854 116.793 115.221 116.897 115.689 116.897Z" fill="#0B5CF4"/>
</g>
<defs>
<filter id="filter0_d_94_2701" x="0" y="0" width="172" height="172" filterUnits="userSpaceOnUse" color-interpolation-filters="sRGB">
<feFlood flood-opacity="0" result="BackgroundImageFix"/>
<feColorMatrix in="SourceAlpha" type="matrix" values="0 0 0 0 0 0 0 0 0 0 0 0 0 0 0 0 0 0 127 0" result="hardAlpha"/>
<feOffset dy="6"/>
<feGaussianBlur stdDeviation="10"/>
<feComposite in2="hardAlpha" operator="out"/>
<feColorMatrix type="matrix" values="0 0 0 0 0 0 0 0 0 0 0 0 0 0 0 0 0 0 0.05 0"/>
<feBlend mode="normal" in2="BackgroundImageFix" result="effect1_dropShadow_94_2701"/>
<feBlend mode="normal" in="SourceGraphic" in2="effect1_dropShadow_94_2701" result="shape"/>
</filter>
</defs>
</svg>
