<svg width="10" height="11" viewBox="0 0 10 11" fill="none" xmlns="http://www.w3.org/2000/svg">
<path d="M2.9165 7.7653V7.76947M2.9165 3.59863V3.6028M7.08317 3.59863V3.6028M7.08317 6.5153H5.83317V7.7653M8.33317 6.5153V6.51947M5.83317 9.0153H7.08317M7.08317 7.7653H8.33317V9.0153M1.6665 2.7653C1.6665 2.65479 1.7104 2.54881 1.78854 2.47067C1.86668 2.39253 1.97266 2.34863 2.08317 2.34863H3.74984C3.86034 2.34863 3.96632 2.39253 4.04447 2.47067C4.12261 2.54881 4.1665 2.65479 4.1665 2.7653V4.43197C4.1665 4.54247 4.12261 4.64845 4.04447 4.72659C3.96632 4.80473 3.86034 4.84863 3.74984 4.84863H2.08317C1.97266 4.84863 1.86668 4.80473 1.78854 4.72659C1.7104 4.64845 1.6665 4.54247 1.6665 4.43197V2.7653ZM5.83317 2.7653C5.83317 2.65479 5.87707 2.54881 5.95521 2.47067C6.03335 2.39253 6.13933 2.34863 6.24984 2.34863H7.9165C8.02701 2.34863 8.13299 2.39253 8.21113 2.47067C8.28927 2.54881 8.33317 2.65479 8.33317 2.7653V4.43197C8.33317 4.54247 8.28927 4.64845 8.21113 4.72659C8.13299 4.80473 8.02701 4.84863 7.9165 4.84863H6.24984C6.13933 4.84863 6.03335 4.80473 5.95521 4.72659C5.87707 4.64845 5.83317 4.54247 5.83317 4.43197V2.7653ZM1.6665 6.93197C1.6665 6.82146 1.7104 6.71548 1.78854 6.63734C1.86668 6.5592 1.97266 6.5153 2.08317 6.5153H3.74984C3.86034 6.5153 3.96632 6.5592 4.04447 6.63734C4.12261 6.71548 4.1665 6.82146 4.1665 6.93197V8.59863C4.1665 8.70914 4.12261 8.81512 4.04447 8.89326C3.96632 8.9714 3.86034 9.0153 3.74984 9.0153H2.08317C1.97266 9.0153 1.86668 8.9714 1.78854 8.89326C1.7104 8.81512 1.6665 8.70914 1.6665 8.59863V6.93197Z" stroke="#0B5CF4" stroke-width="0.833333" stroke-linecap="round" stroke-linejoin="round"/>
</svg>
