<svg width="12" height="13" viewBox="0 0 12 13" fill="none" xmlns="http://www.w3.org/2000/svg">
<g clip-path="url(#clip0_94_2809)">
<path d="M10.159 2.71807L6.17695 1.36104C6.12891 1.34463 6.06445 1.33643 6 1.33643C5.93555 1.33643 5.87109 1.34463 5.82305 1.36104L1.84102 2.71807C1.74375 2.75088 1.66406 2.86338 1.66406 2.9665V8.61963C1.66406 8.72275 1.73086 8.85869 1.81172 8.92315L5.85117 12.0708C5.89219 12.1024 5.94492 12.1188 5.99883 12.1188C6.05273 12.1188 6.10664 12.1024 6.14648 12.0708L10.1859 8.92315C10.2668 8.85986 10.3336 8.72393 10.3336 8.61963V2.9665C10.3359 2.86338 10.2562 2.75205 10.159 2.71807ZM9.49219 8.39463L6 11.1157L2.50781 8.39463V3.38369L6 2.19307L9.49219 3.38369V8.39463ZM4.72148 6.92393L3.81328 7.83213C3.79583 7.84975 3.78605 7.87354 3.78605 7.89834C3.78605 7.92314 3.79583 7.94693 3.81328 7.96455L4.21172 8.36299C4.24805 8.39932 4.30781 8.39932 4.34414 8.36299L5.25234 7.45479C5.90508 7.86611 6.77695 7.7876 7.34531 7.21924C8.00508 6.55947 8.00508 5.49072 7.34531 4.83096C6.68555 4.17119 5.6168 4.17119 4.95703 4.83096C4.38867 5.39932 4.31016 6.27236 4.72148 6.92393ZM5.48789 5.36182C5.85469 4.99502 6.44883 4.99502 6.81445 5.36182C7.18125 5.72861 7.18125 6.32275 6.81445 6.68838C6.44766 7.05518 5.85352 7.05518 5.48789 6.68838C5.12227 6.32158 5.12109 5.72861 5.48789 5.36182Z" fill="#0B5CF4"/>
</g>
<defs>
<clipPath id="clip0_94_2809">
<rect width="12" height="12" fill="white" transform="translate(0 0.727051)"/>
</clipPath>
</defs>
</svg>
